<svg xmlns="http://www.w3.org/2000/svg" viewBox="0 0 2437 1024">
    <path d="M795.7817 74.24C665.5067 109.835 539.4977 199.97 475.8587 303.074c-30.195 48.924-36.945 53.982-141.642 106.308-60.462 30.222-134.109 74.538-163.656 98.478C30.1877 621.647 25.4987 746.036 159.1127 811.412c79.245 38.772 158.04 51.705 338.175 55.53 148.401 3.15 167.607 5.337 190.8 21.852 121.113 86.247 288.549 94.95 431.307 22.428 51.327-26.073 115.119-81.9 148.329-129.843l25.506-36.801H1489.4027c189.792 0 196.353-0.603 202.014-18.432 11.682-36.81-7.938-43.875-129.267-46.557l-113.868-2.511 61.758-29.25 61.767-29.25h213.885c184.176 0 215.532-1.98 225.72-14.256 8.577-10.332 9.234-18.36 2.376-29.25-8.154-12.951-31.95-15.327-174.348-17.451l-164.898-2.466 34.947-35.784 34.947-35.793h217.575c232.632 0 246.699-2.682 233.406-44.568-5.661-17.838-12.213-18.432-203.238-18.432h-197.397V376.91c0-50.85-24.147-93.096-71.433-124.956-65.493-44.136-216.342-74.376-371.052-74.376-43.146 0-80.757-3.726-83.565-8.28-8.775-14.193-85.284-53.613-152.28-78.453-81.099-30.078-241.101-38.358-320.67-16.614z m255.636 67.113c38.232 9.783 93.834 30.744 123.552 46.584 57.987 30.906 178.812 136.539 178.812 156.33 0 15.12-198.054 113.436-288 142.974-166.518 54.693-393.435 77.805-551.25 56.142-46.683-6.408-51.75-9.216-51.75-28.746 0-29.934 38.223-128.673 68.193-176.166 34.587-54.828 108.567-124.695 163.494-154.413 60.39-32.67 163.881-59.364 232.623-59.985 30.15-0.27 86.094 7.506 124.326 17.28zM724.2227 227.042c-95.319 51.732-178.569 145.917-167.598 189.612 9.549 38.07 42.822 28.548 77.427-22.158 36.468-53.451 76.635-86.643 148.185-122.49 44.361-22.221 54.045-31.086 54.045-49.5 0-35.217-41.931-33.516-112.059 4.536z m835.443 36.738c81.774 15.849 155.259 53.595 166.383 85.455 45.162 129.339-383.274 342.027-849.267 421.587-430.407 73.494-791.802 16.146-744.966-118.224 12.348-35.397 100.908-113.427 178.578-157.32 89.46-50.58 103.338-55.575 95.157-34.254-3.501 9.108-8.82 40.077-11.817 68.805-5.202 49.77-4.392 52.65 17.19 60.849 45.585 17.334 210.087 30.339 317.358 25.092 201.699-9.873 370.233-56.412 562.356-155.295 110.61-56.934 153.144-85.41 153.144-102.555 0-6.606-33.282-54.108-74.475-106.272-11.115-14.067 87.633-7.776 190.359 12.132z m200.412 433.377c-5.643 10.548-5.679 21.915-0.09 31.905 12.393 22.14 131.562 22.815 140.013 0.792 11.502-29.97-9.666-43.641-71.874-46.422-49.788-2.232-60.687-0.027-68.049 13.725z m-595.296 101.898c-71.703 61.434-164.97 98.523-247.761 98.523-37.152 0-128.583-22.797-141.84-35.37-3.915-3.708 37.242-13.851 91.458-22.545 54.207-8.694 144.486-27.117 200.601-40.95 130.419-32.13 135.423-32.112 97.542 0.342z"></path>
</svg>